<svg width="50" height="50" viewBox="0 0 50 50" fill="none" xmlns="http://www.w3.org/2000/svg">
<path d="M36.6547 22.9085C44.8801 24.2455 49.7692 17.8168 43.6911 9.15744C41.4389 6.13706 38.0885 3.68474 34.5074 2.41701C30.5556 1.01767 26.7786 1.2532 24.3935 3.03356C17.602 8.10446 25.6175 21.1142 36.6547 22.9085ZM29.8492 7.99362C30.3458 4.28743 36.34 4.2043 40.082 8.90805C40.1309 8.90112 40.1799 8.89419 40.2218 8.89419C40.1729 8.90112 40.1239 8.90805 40.075 8.90805C40.6205 9.63543 41.278 10.7715 41.3549 12.067C41.4179 13.1754 40.9982 14.1591 40.1939 14.7548C36.6897 17.3734 29.2476 12.5103 29.8492 7.99362Z" fill="url(#paint0_linear_6_41)"/>
<path d="M49.5733 20.4146C49.2726 18.8975 49.1887 18.6481 48.5662 16.6807L48.2024 15.7247C48.6081 16.8192 49.3705 18.8628 49.3425 21.2874C49.2096 33.265 31.7167 33.9993 20.5396 22.4997C10.9293 12.6142 12.2373 -0.527157 26.6807 0.075532L25.3658 0.00625778C23.764 -0.0145246 23.5822 0.00625758 21.344 0.227936C19.3436 0.539672 19.0009 0.636657 16.7627 1.28784C16.0282 1.54415 15.063 1.93209 14.3426 2.22305C6.42495 5.82533 5.69053 15.8494 12.6779 25.0421C23.792 39.666 47.0973 43.7878 49.8181 27.9863C49.9091 27.0164 49.972 25.7141 50 24.7373C49.944 22.8877 49.8951 22.5552 49.5733 20.4146Z" fill="url(#paint1_linear_6_41)"/>
<path d="M46.1181 38.3151L45.8104 38.7654C45.9153 38.62 46.0132 38.4676 46.1181 38.3151Z" fill="url(#paint2_linear_6_41)"/>
<path d="M36.3539 43.9125C18.3923 46.1709 -5.38859 23.1578 5.54364 8.79029L4.42454 10.1896C2.8508 12.4826 2.55004 13.0784 1.52886 15.2328C1.15816 16.1819 0.717514 17.4704 0.40976 18.4402C-3.61901 35.2948 23.0156 54.6363 38.3963 46.0323C40.075 44.9239 40.3128 44.7161 42.1873 43.0743C43.3623 41.9451 43.4602 41.8274 45.0899 39.7976L45.8034 38.7585C43.2224 42.3469 39.2706 43.5454 36.3539 43.9125Z" fill="url(#paint3_linear_6_41)"/>
<path d="M0.0180817 29.9537C0.26988 31.1591 0.297857 31.2422 0.95533 33.3066C1.40297 34.5327 1.47292 34.6851 2.34721 36.4932C3.21452 38.0796 3.43134 38.3844 4.47351 39.8669C5.07503 40.6705 5.12399 40.7259 6.34101 42.0906C6.96351 42.7556 6.99149 42.7764 8.29245 43.9472C8.94992 44.5083 8.94992 44.5083 10.3558 45.5266C11.0692 46.0185 11.0692 46.0185 12.566 46.8844C13.3564 47.3139 13.3564 47.3139 14.9721 48.0413C15.8674 48.4154 15.8674 48.4154 17.644 48.9834C18.7001 49.2882 18.7351 49.2952 20.6655 49.6693C21.9455 49.8702 22.0294 49.8771 24.1417 49.9948C25.1 50.0226 26.3869 49.9325 27.3452 49.8702C15.6016 50.6045 2.82983 41.3009 0.0180817 29.9537Z" fill="url(#paint4_linear_6_41)"/>
<defs>
<linearGradient id="paint0_linear_6_41" x1="21.8911" y1="12.2982" x2="46.4092" y2="12.2982" gradientUnits="userSpaceOnUse">
<stop stop-color="#2C3B8D"/>
<stop offset="1" stop-color="#00ACED"/>
</linearGradient>
<linearGradient id="paint1_linear_6_41" x1="7.8847" y1="19.0379" x2="50" y2="19.0379" gradientUnits="userSpaceOnUse">
<stop stop-color="#2C3B8D"/>
<stop offset="1" stop-color="#00ACED"/>
</linearGradient>
<linearGradient id="paint2_linear_6_41" x1="45.8104" y1="38.5403" x2="46.1181" y2="38.5403" gradientUnits="userSpaceOnUse">
<stop stop-color="#2C3B8D"/>
<stop offset="1" stop-color="#00ACED"/>
</linearGradient>
<linearGradient id="paint3_linear_6_41" x1="0" y1="28.4686" x2="45.8034" y2="28.4686" gradientUnits="userSpaceOnUse">
<stop stop-color="#2C3B8D"/>
<stop offset="1" stop-color="#00ACED"/>
</linearGradient>
<linearGradient id="paint4_linear_6_41" x1="0.0180817" y1="39.9768" x2="27.3452" y2="39.9768" gradientUnits="userSpaceOnUse">
<stop stop-color="#2C3B8D"/>
<stop offset="1" stop-color="#00ACED"/>
</linearGradient>
</defs>
</svg>
